<svg width="284" height="38" viewBox="0 0 284 38" fill="none" xmlns="http://www.w3.org/2000/svg">
<g opacity="0.1">
<path d="M2 36.1899L29.9921 1" stroke="white" stroke-width="3" stroke-miterlimit="10"/>
<path d="M15.9844 36.1899L44.0006 1" stroke="white" stroke-width="3" stroke-miterlimit="10"/>
<path d="M29.9922 36.1899L57.9842 1" stroke="white" stroke-width="3" stroke-miterlimit="10"/>
<path d="M44 36.1899L71.992 1" stroke="white" stroke-width="3" stroke-miterlimit="10"/>
<path d="M57.9844 36.1899L85.9763 1" stroke="white" stroke-width="3" stroke-miterlimit="10"/>
<path d="M71.9922 36.1899L99.9843 1" stroke="white" stroke-width="3" stroke-miterlimit="10"/>
<path d="M85.9766 36.1899L113.993 1" stroke="white" stroke-width="3" stroke-miterlimit="10"/>
<path d="M99.9844 36.1899L127.976 1" stroke="white" stroke-width="3" stroke-miterlimit="10"/>
<path d="M113.992 36.1899L141.984 1" stroke="white" stroke-width="3" stroke-miterlimit="10"/>
<path d="M127.977 36.1899L155.993 1" stroke="white" stroke-width="3" stroke-miterlimit="10"/>
<path d="M141.984 36.1899L169.976 1" stroke="white" stroke-width="3" stroke-miterlimit="10"/>
<path d="M155.992 36.1899L183.984 1" stroke="white" stroke-width="3" stroke-miterlimit="10"/>
<path d="M169.977 36.1899L197.993 1" stroke="white" stroke-width="3" stroke-miterlimit="10"/>
<path d="M183.984 36.1899L211.976 1" stroke="white" stroke-width="3" stroke-miterlimit="10"/>
<path d="M197.992 36.1899L225.984 1" stroke="white" stroke-width="3" stroke-miterlimit="10"/>
<path d="M211.977 36.1899L239.993 1" stroke="white" stroke-width="3" stroke-miterlimit="10"/>
<path d="M225.984 36.1899L253.976 1" stroke="white" stroke-width="3" stroke-miterlimit="10"/>
<path d="M239.992 36.1899L267.984 1" stroke="white" stroke-width="3" stroke-miterlimit="10"/>
<path d="M253.977 36.1899L281.969 1" stroke="white" stroke-width="3" stroke-miterlimit="10"/>
</g>
</svg>
