<svg width="315" height="61" viewBox="0 0 315 61" fill="none" xmlns="http://www.w3.org/2000/svg">
<path d="M114.704 9.04297L114.627 9.34961L314.227 5.84766L314.937 10.8184L304.641 22.8887L304.642 22.8896L296.122 28.9248L305.105 23.4697L308.901 28.2148L291.86 44.1904L210.468 47.4365L204.547 43.8984L208.52 47.5137L162.432 49.3525L161.212 53.4209L157.346 49.5547L142.912 50.1309L142.396 52.7109L135.537 50.4248L133.229 50.5166L122.87 60.877L117.189 51.6455V56.6162L107.489 52.3721L107.604 52.3564L110.089 42.0605L105.628 51.6172L67.1445 53.1523L65 57.6816L63.5801 54.4863L63.4863 54.5078L78.4912 18.6289L61.2998 55.0332L54.7041 56.6162V53.6494L42.6338 54.1309L68.376 14.7236H68.1953L74.2314 4.42773L120.029 3.00781L114.704 9.04297ZM53.1582 10.3203L39.3535 27.5566L35.5049 25.9883L36.4473 29.2217L35.2207 33.4385L42.4697 48.2822L39.4004 54.2041L24.1455 53.6211L30.8545 36.1133L27.375 34.2041L18.9443 40.9873L19.0664 37.7949L46.7725 10.0762L53.1582 10.3203ZM68.0479 11.2441L43.2227 47.2451L36.6426 33.4922L54.9219 10.7432L68.0479 11.2441ZM6.15039 41.209L-0.00488281 34.9336L3.07812 28.6562L6.15039 41.209ZM45.0576 8.58887L19.4932 36.0352L15.8623 28.79L24.1279 17.0264L35.124 8.20996L45.0576 8.58887ZM136.004 29.2793C135.22 29.2794 134.583 30.2338 134.583 31.4102C134.583 32.5863 135.22 33.5399 136.004 33.54C136.788 33.5398 137.424 32.5862 137.424 31.4102C137.424 30.2339 136.788 29.2796 136.004 29.2793ZM93.7549 28.5693V26.084L89.4951 23.5996L93.7549 28.5693ZM102.631 23.5996L104.762 25.7305L108.667 17.9189L102.631 23.5996ZM27.6914 7.57031L14.7598 20.5762L11.7832 14.7783L19.9141 6.56152L15.5459 0L27.6914 7.57031Z" fill="black" fill-opacity="0.68"/>
</svg>
