<svg width="18" height="18" viewBox="0 0 18 18" fill="none" xmlns="http://www.w3.org/2000/svg">
<path d="M14.7654 10.5698L14.9029 9.29132C14.9763 8.60917 15.0247 8.15873 14.9867 7.87492L15 7.875C15.6213 7.875 16.125 7.37132 16.125 6.75C16.125 6.12868 15.6213 5.625 15 5.625C14.3787 5.625 13.875 6.12868 13.875 6.75C13.875 7.031 13.978 7.28793 14.1484 7.48509C13.9038 7.63602 13.5841 7.95449 13.1029 8.43384L13.1029 8.43386C12.7321 8.80316 12.5468 8.98781 12.34 9.0164C12.2254 9.03225 12.1086 9.01596 12.0028 8.96937C11.8119 8.88528 11.6846 8.65701 11.43 8.20047L10.0878 5.79405C9.93076 5.51241 9.79929 5.27668 9.68075 5.08699C10.167 4.8389 10.5 4.33334 10.5 3.75C10.5 2.92157 9.82843 2.25 9 2.25C8.17157 2.25 7.5 2.92157 7.5 3.75C7.5 4.33334 7.83299 4.8389 8.31925 5.08699C8.2007 5.27669 8.06925 5.51238 7.91216 5.79405L6.57004 8.20047C6.31542 8.65701 6.18811 8.88528 5.99716 8.96937C5.89135 9.01596 5.77461 9.03225 5.66002 9.0164C5.45323 8.98781 5.26786 8.80316 4.89712 8.43386C4.4159 7.95451 4.09617 7.63602 3.85165 7.48509C4.02198 7.28793 4.125 7.031 4.125 6.75C4.125 6.12868 3.62132 5.625 3 5.625C2.37868 5.625 1.875 6.12868 1.875 6.75C1.875 7.37132 2.37868 7.875 3 7.875L3.01328 7.87492C2.97526 8.15873 3.02371 8.60917 3.09708 9.29132L3.2346 10.5698C3.31093 11.2795 3.37441 11.9547 3.45216 12.5625H14.5478C14.6256 11.9547 14.6891 11.2795 14.7654 10.5698Z" fill="#FFDD00"/>
<path d="M8.18405 15.75H9.81595C11.9429 15.75 13.0064 15.75 13.7159 15.1149C14.0257 14.8377 14.2218 14.3379 14.3633 13.6875H3.63672C3.77824 14.3379 3.97435 14.8377 4.28406 15.1149C4.99363 15.75 6.0571 15.75 8.18405 15.75Z" fill="#FFDD00"/>
</svg>
