<svg width="18" height="18" viewBox="0 0 18 18" fill="none" xmlns="http://www.w3.org/2000/svg">
<g clip-path="url(#clip0_2699_12975)">
<path d="M13.5348 9.48194L13.3292 8.50317C13.2196 7.98094 13.1471 7.6361 13.0508 7.43531L13.0606 7.43217C13.5202 7.28284 13.7718 6.7892 13.6224 6.32961C13.4731 5.87001 12.9795 5.61849 12.5199 5.76782C12.0603 5.91715 11.8088 6.41079 11.9581 6.87039C12.0256 7.07824 12.1636 7.24354 12.337 7.34844C12.1924 7.51886 12.0324 7.83128 11.7917 8.30152L11.7916 8.30153C11.6062 8.66381 11.5134 8.84495 11.3673 8.9158C11.2864 8.95506 11.1961 8.97108 11.1067 8.96204C10.9452 8.94574 10.7962 8.80748 10.4981 8.53097L8.92692 7.07349C8.74304 6.90291 8.58913 6.76014 8.45586 6.64831C8.75592 6.34793 8.88073 5.89393 8.74052 5.46242C8.54141 4.84963 7.88323 4.51427 7.27044 4.71338C6.65764 4.91249 6.32228 5.57067 6.52139 6.18346C6.6616 6.61497 7.02942 6.90891 7.44874 6.97554C7.40664 7.14436 7.36606 7.3503 7.31755 7.59641L6.90315 9.69904C6.82453 10.0979 6.78522 10.2974 6.66418 10.4055C6.59711 10.4654 6.51467 10.5055 6.4261 10.5213C6.26626 10.5499 6.08476 10.4578 5.72176 10.2738L5.72176 10.2738C5.25059 10.0348 4.93753 9.87609 4.72038 9.82322C4.79899 9.63644 4.81344 9.42162 4.74591 9.21376C4.59658 8.75417 4.10294 8.50265 3.64334 8.65198C3.18375 8.80131 2.93223 9.29495 3.08156 9.75454C3.23089 10.2141 3.72453 10.4657 4.18412 10.3163L4.19393 10.3131C4.23402 10.5321 4.37812 10.8537 4.59634 11.3407L5.00535 12.2533C5.23238 12.7599 5.51818 14.0692 5.72176 14.5001C7.95544 12.4541 10.8314 11.2228 13.8528 11.0082C13.7642 10.54 13.6489 10.0252 13.5348 9.48194Z" fill="#F0224C"/>
</g>
<defs>
<clipPath id="clip0_2699_12975">
<rect width="14" height="14" fill="white" transform="translate(0 4.32624) rotate(-18)"/>
</clipPath>
</defs>
</svg>
