<svg width="21" height="20" viewBox="0 0 21 20" fill="none" xmlns="http://www.w3.org/2000/svg">
<path d="M6.33333 9.16675V5.83341C6.33333 4.72835 6.77232 3.66854 7.55372 2.88714C8.33512 2.10573 9.39493 1.66675 10.5 1.66675C11.6051 1.66675 12.6649 2.10573 13.4463 2.88714C14.2277 3.66854 14.6667 4.72835 14.6667 5.83341V9.16675M4.66667 9.16675H16.3333C17.2538 9.16675 18 9.91294 18 10.8334V16.6667C18 17.5872 17.2538 18.3334 16.3333 18.3334H4.66667C3.74619 18.3334 3 17.5872 3 16.6667V10.8334C3 9.91294 3.74619 9.16675 4.66667 9.16675Z" stroke="white" stroke-width="2" stroke-linecap="round" stroke-linejoin="round"/>
</svg>
