<svg width="11" height="10" viewBox="0 0 11 10" fill="none" xmlns="http://www.w3.org/2000/svg">
<path d="M8.02872 9.60248L5.31079 6.58392L2.01073 9.5553C1.64773 9.88215 1.10611 9.87791 0.807137 9.54586C0.508165 9.21382 0.560556 8.67473 0.923562 8.34787L4.22362 5.37649L1.50569 2.35792C1.20671 2.02588 1.25911 1.48679 1.62211 1.15993C1.98512 0.833083 2.52674 0.83733 2.82571 1.16937L5.54364 4.18794L8.84369 1.21656C9.2067 0.889704 9.74832 0.893951 10.0473 1.22599C10.3463 1.55804 10.2939 2.09713 9.93086 2.42398L6.63081 5.39537L9.34874 8.41393C9.64771 8.74597 9.59532 9.28507 9.23231 9.61192C8.86931 9.93877 8.32769 9.93453 8.02872 9.60248Z" fill="#D8D8D8"/>
</svg>
