<svg width="43" height="53" viewBox="0 0 43 53" fill="none" xmlns="http://www.w3.org/2000/svg">
<path d="M17.2243 48.5587C17.2243 48.5587 22.1102 39.6183 20.0038 25.2621C17.8974 10.906 12.7855 8.03671 13.2741 6.05278C13.7637 4.06849 22.099 2.05846 23.7269 1.81477C25.3549 1.57107 25.9861 3.1788 26.7644 5.53341C27.5438 7.88765 31.3442 17.2109 28.2714 30.8048C25.1998 44.3984 17.8392 50.6525 17.8392 50.6525C17.8392 50.6525 16.3406 50.5649 17.2228 48.5579L17.2243 48.5587Z" fill="url(#paint0_linear_2322_10393)"/>
<g style="mix-blend-mode:overlay" opacity="0.72">
<path d="M22.3554 26.2486C20.249 11.8924 15.1371 9.02311 15.6257 7.03919C16.0886 5.16238 23.5755 3.26189 25.7588 2.85623C25.2791 2.0729 24.6896 1.65703 23.804 1.7895C22.176 2.03319 13.8407 4.04322 13.3511 6.02752C12.8626 8.01144 17.9744 10.8807 20.0808 25.2369C22.1876 39.5942 17.3014 48.5335 17.3014 48.5335C16.4191 50.5405 17.9177 50.6281 17.9177 50.6281C17.9177 50.6281 18.8531 49.8324 20.1961 48.1941C21.4395 45.1893 23.9815 37.3346 22.3554 26.2486Z" fill="#FCFCFC"/>
</g>
<path style="mix-blend-mode:multiply" d="M26.7619 5.53391C25.9836 3.1793 25.3524 1.57157 23.7244 1.81527C23.594 1.83479 23.4214 1.86598 23.2131 1.90662C23.5799 2.55329 23.8852 3.4202 24.2176 4.42435C24.997 6.77859 28.7963 16.1023 25.7247 29.6958C23.9083 37.7377 20.5907 43.2098 18.1835 46.3388C17.6429 47.7886 17.2218 48.5592 17.2218 48.5592C16.3396 50.5662 17.8382 50.6538 17.8382 50.6538C17.8382 50.6538 25.1988 44.3997 28.2704 30.8061C31.3421 17.2126 27.5428 7.88894 26.7634 5.5347L26.7619 5.53391Z" fill="url(#paint1_linear_2322_10393)"/>
<path d="M14.8735 50.4889C14.8735 50.4889 21.1589 45.101 23.4801 33.9258C25.801 22.7495 22.6027 19.3262 23.5327 17.9805C24.4624 16.6336 31.525 17.2588 32.8647 17.4896C34.2025 17.7222 34.252 19.0734 34.2094 21.0166C34.1668 22.9597 34.558 30.8326 28.4042 40.1307C22.2515 49.4283 14.7771 52.1976 14.7771 52.1976C14.7771 52.1976 13.6311 51.7537 14.8746 50.4885L14.8735 50.4889Z" fill="url(#paint2_linear_2322_10393)"/>
<g style="mix-blend-mode:overlay" opacity="0.72">
<path d="M25.2889 35.1146C27.6097 23.9382 24.4114 20.515 25.3415 19.1692C26.1704 17.9691 31.8737 18.3339 34.05 18.5925C33.8738 17.9928 33.5274 17.6035 32.8653 17.4894C31.5264 17.2571 24.4631 16.6335 23.5334 17.9803C22.6033 19.326 25.8017 22.7493 23.4808 33.9257C21.1595 45.1009 14.8742 50.4887 14.8742 50.4887C13.6313 51.7524 14.7767 52.1979 14.7767 52.1979C14.7767 52.1979 15.9032 51.7805 17.6403 50.7266C19.4913 48.7326 23.5273 43.5875 25.2882 35.1161L25.2889 35.1146Z" fill="#FCFCFC"/>
</g>
<path style="mix-blend-mode:multiply" d="M32.8666 17.4888C32.596 17.4418 32.0919 17.3791 31.452 17.3197C31.6847 17.9431 31.69 18.8337 31.6667 19.9051C31.6241 21.8483 32.0153 29.7212 25.8615 39.0192C22.7527 43.7172 19.3074 46.7467 16.6579 48.5963C15.6049 49.8619 14.8761 50.4866 14.8761 50.4866C13.6333 51.7503 14.7786 52.1958 14.7786 52.1958C14.7786 52.1958 22.253 49.4264 28.4057 40.1288C34.5599 30.8319 34.1694 22.9575 34.2109 21.0147C34.2539 19.0727 34.2051 17.72 32.8662 17.4877L32.8666 17.4888Z" fill="url(#paint3_linear_2322_10393)"/>
<defs>
<linearGradient id="paint0_linear_2322_10393" x1="29.215" y1="26.9607" x2="12.3909" y2="26.2452" gradientUnits="userSpaceOnUse">
<stop stop-color="#979797"/>
<stop offset="1" stop-color="#D7D7D7"/>
</linearGradient>
<linearGradient id="paint1_linear_2322_10393" x1="5.66675" y1="-4.4222" x2="29.7165" y2="40.7103" gradientUnits="userSpaceOnUse">
<stop offset="0.25" stop-color="#D7D7D7"/>
<stop offset="1" stop-color="#979797"/>
</linearGradient>
<linearGradient id="paint2_linear_2322_10393" x1="30.2727" y1="37.7821" x2="17.7624" y2="32.9794" gradientUnits="userSpaceOnUse">
<stop stop-color="#979797"/>
<stop offset="1" stop-color="#D7D7D7"/>
</linearGradient>
<linearGradient id="paint3_linear_2322_10393" x1="4.44341" y1="-3.76694" x2="28.492" y2="41.3661" gradientUnits="userSpaceOnUse">
<stop offset="0.25" stop-color="#D7D7D7"/>
<stop offset="1" stop-color="#979797"/>
</linearGradient>
</defs>
</svg>
