<svg width="43" height="53" viewBox="0 0 43 53" fill="none" xmlns="http://www.w3.org/2000/svg">
<path d="M25.0413 48.5516C25.0413 48.5516 20.1554 39.6113 22.2618 25.2551C24.3682 10.8989 29.4801 8.02963 28.9916 6.0457C28.5019 4.06141 20.1666 2.05138 18.5387 1.80769C16.9108 1.56399 16.2795 3.17172 15.5012 5.52633C14.7218 7.88057 10.9215 17.2039 13.9942 30.7978C17.0658 44.3913 24.4264 50.6455 24.4264 50.6455C24.4264 50.6455 25.925 50.5578 25.0428 48.5508L25.0413 48.5516Z" fill="url(#paint0_linear_2322_10382)"/>
<g style="mix-blend-mode:overlay" opacity="0.72">
<path d="M19.9102 26.2417C22.0166 11.8855 27.1285 9.01628 26.64 7.03235C26.177 5.15554 18.6902 3.25505 16.5069 2.8494C16.9866 2.06606 17.5761 1.65019 18.4617 1.78266C20.0896 2.02636 28.4249 4.03639 28.9145 6.02068C29.4031 8.00461 24.2912 10.8739 22.1848 25.2301C20.078 39.5874 24.9643 48.5266 24.9643 48.5266C25.8465 50.5336 24.3479 50.6212 24.3479 50.6212C24.3479 50.6212 23.4125 49.8255 22.0695 48.1873C20.8261 45.1825 18.2841 37.3277 19.9102 26.2417Z" fill="#FCFCFC"/>
</g>
<path style="mix-blend-mode:multiply" d="M15.5037 5.52683C16.282 3.17222 16.9133 1.56449 18.5412 1.80819C18.6717 1.82771 18.8443 1.8589 19.0525 1.89954C18.6858 2.54621 18.3804 3.41312 18.048 4.41727C17.2686 6.77151 13.4693 16.0952 16.5409 29.6887C18.3573 37.7306 21.6749 43.2027 24.0821 46.3317C24.6228 47.7815 25.0438 48.5521 25.0438 48.5521C25.926 50.5591 24.4274 50.6468 24.4274 50.6468C24.4274 50.6468 17.0669 44.3926 13.9952 30.7991C10.9236 17.2055 14.7228 7.88186 15.5022 5.52762L15.5037 5.52683Z" fill="url(#paint1_linear_2322_10382)"/>
<path d="M27.3999 50.482C27.3999 50.482 21.1146 45.0942 18.7933 33.919C16.4725 22.7427 19.6708 19.3194 18.7407 17.9737C17.811 16.6268 10.7484 17.2519 9.40878 17.4827C8.07094 17.7154 8.02146 19.0665 8.06405 21.0097C8.10664 22.9529 7.71544 30.8258 13.8692 40.1238C20.022 49.4215 27.4963 52.1908 27.4963 52.1908C27.4963 52.1908 28.6424 51.7469 27.3988 50.4817L27.3999 50.482Z" fill="url(#paint2_linear_2322_10382)"/>
<g style="mix-blend-mode:overlay" opacity="0.72">
<path d="M16.9846 35.1077C14.6637 23.9314 17.862 20.5081 16.932 19.1624C16.1031 17.9623 10.3997 18.3271 8.2234 18.5857C8.39959 17.986 8.74601 17.5967 9.40811 17.4826C10.747 17.2502 17.8104 16.6266 18.74 17.9735C19.6701 19.3192 16.4718 22.7425 18.7927 33.9188C21.1139 45.094 27.3992 50.4819 27.3992 50.4819C28.6421 51.7456 27.4967 52.191 27.4967 52.191C27.4967 52.191 26.3703 51.7737 24.6331 50.7197C22.7821 48.7257 18.7461 43.5806 16.9853 35.1093L16.9846 35.1077Z" fill="#FCFCFC"/>
</g>
<path style="mix-blend-mode:multiply" d="M9.40683 17.482C9.67748 17.435 10.1815 17.3723 10.8215 17.3129C10.5888 17.9362 10.5834 18.8269 10.6068 19.8983C10.6493 21.8414 10.2581 29.7143 16.4119 39.0124C19.5208 43.7104 22.966 46.7398 25.6155 48.5895C26.6685 49.855 27.3973 50.4798 27.3973 50.4798C28.6402 51.7435 27.4948 52.1889 27.4948 52.1889C27.4948 52.1889 20.0204 49.4196 13.8677 40.1219C7.71352 30.8251 8.10401 22.9506 8.0625 21.0078C8.01952 19.0658 8.0683 17.7131 9.40723 17.4808L9.40683 17.482Z" fill="url(#paint3_linear_2322_10382)"/>
<defs>
<linearGradient id="paint0_linear_2322_10382" x1="13.0506" y1="26.9536" x2="29.8747" y2="26.2381" gradientUnits="userSpaceOnUse">
<stop stop-color="#979797"/>
<stop offset="1" stop-color="#D7D7D7"/>
</linearGradient>
<linearGradient id="paint1_linear_2322_10382" x1="36.5989" y1="-4.42928" x2="12.5491" y2="40.7033" gradientUnits="userSpaceOnUse">
<stop offset="0.25" stop-color="#D7D7D7"/>
<stop offset="1" stop-color="#979797"/>
</linearGradient>
<linearGradient id="paint2_linear_2322_10382" x1="12.0008" y1="37.7753" x2="24.511" y2="32.9726" gradientUnits="userSpaceOnUse">
<stop stop-color="#979797"/>
<stop offset="1" stop-color="#D7D7D7"/>
</linearGradient>
<linearGradient id="paint3_linear_2322_10382" x1="37.83" y1="-3.77378" x2="13.7815" y2="41.3592" gradientUnits="userSpaceOnUse">
<stop offset="0.25" stop-color="#D7D7D7"/>
<stop offset="1" stop-color="#979797"/>
</linearGradient>
</defs>
</svg>
